<svg width="32" height="32" viewBox="0 0 32 32" fill="none" xmlns="http://www.w3.org/2000/svg">
<mask id="mask0_437_397" style="mask-type:luminance" maskUnits="userSpaceOnUse" x="0" y="0" width="32" height="32">
<path d="M31.4834 0H0.453125V32H31.4834V0Z" fill="white"/>
</mask>
<g mask="url(#mask0_437_397)">
<path d="M16.2365 -0.00247985C12.8955 -0.0621811 9.62515 0.991974 6.91187 3.00314C6.82824 3.06509 6.77189 3.15874 6.75523 3.26354C6.73858 3.36833 6.76297 3.47568 6.82305 3.56192C6.88312 3.64817 6.97396 3.70627 7.07558 3.72345C7.1772 3.74063 7.28128 3.71548 7.3649 3.65353C9.07799 2.38326 11.0356 1.50713 13.1053 1.08439C15.1751 0.66164 17.3087 0.702149 19.362 1.20314C19.4125 1.21813 19.4653 1.22239 19.5175 1.21568C19.5695 1.20897 19.6198 1.1914 19.6652 1.16407C19.7104 1.13675 19.7499 1.10023 19.7811 1.0567C19.8124 1.01317 19.8348 0.963545 19.8469 0.91085C19.8589 0.858156 19.8605 0.803504 19.8515 0.750157C19.8425 0.69681 19.8231 0.645878 19.7944 0.600499C19.7658 0.555119 19.7285 0.516222 19.6848 0.486143C19.6412 0.456064 19.592 0.435417 19.5405 0.425499C18.4569 0.160909 17.3497 0.0174364 16.2365 -0.00247985ZM21.6637 1.1423C21.5726 1.14127 21.4842 1.17332 21.4138 1.23277C21.3433 1.29223 21.2954 1.37533 21.2784 1.46754C21.2614 1.55975 21.2764 1.65515 21.3207 1.73712C21.365 1.81909 21.4359 1.88241 21.521 1.91593C24.4883 3.16028 26.9818 5.36781 28.6237 8.20431C30.2656 11.0408 30.9667 14.3518 30.6206 17.6359C30.6151 17.6882 30.6196 17.7411 30.6339 17.7915C30.6482 17.842 30.6721 17.889 30.704 17.93C30.7359 17.971 30.7754 18.005 30.8202 18.0303C30.8649 18.0555 30.9139 18.0714 30.9646 18.0771C31.0153 18.0828 31.0666 18.0781 31.1155 18.0633C31.1644 18.0486 31.2101 18.024 31.2498 17.9911C31.2895 17.9581 31.3226 17.9175 31.347 17.8713C31.3715 17.8252 31.3869 17.7746 31.3925 17.7223C31.7558 14.2654 31.0175 10.7805 29.2892 7.79493C27.5608 4.80934 24.9365 2.48553 21.8134 1.17511C21.766 1.1543 21.7152 1.14261 21.6637 1.1423ZM15.8207 2.30631C15.5228 2.30631 15.2241 2.32389 14.9255 2.34869C14.8747 2.35279 14.8252 2.3672 14.7797 2.39103C14.7343 2.41485 14.694 2.44763 14.6608 2.48756C14.6278 2.52749 14.6026 2.57379 14.5868 2.62374C14.571 2.67369 14.565 2.72635 14.569 2.77872C14.573 2.83109 14.5868 2.88215 14.61 2.92897C14.6331 2.97578 14.6649 3.01744 14.7036 3.05157C14.7424 3.08571 14.7872 3.11163 14.8357 3.12789C14.8841 3.14415 14.9352 3.1504 14.986 3.1463C17.2372 2.9631 19.4931 3.41351 21.5163 4.44791C21.562 4.47123 21.6116 4.48507 21.6625 4.48858C21.7134 4.4921 21.7645 4.48524 21.8127 4.46842C21.861 4.45159 21.9056 4.4251 21.944 4.39049C21.9824 4.35588 22.0139 4.31383 22.0364 4.26671C22.059 4.21959 22.0724 4.16834 22.0758 4.11588C22.0792 4.06342 22.0726 4.01081 22.0563 3.961C22.0399 3.91119 22.0143 3.86518 21.9808 3.8256C21.9472 3.78602 21.9064 3.75366 21.8607 3.73033C19.9845 2.77102 17.9148 2.28304 15.8207 2.30631ZM12.6362 2.75831C12.6007 2.75868 12.5655 2.76408 12.5315 2.77433C9.70947 3.55478 7.21595 5.27341 5.43739 7.66383C3.65883 10.0542 2.69457 12.9829 2.69407 15.9959C2.69407 17.6863 2.8275 18.4335 2.66071 19.9567C2.56373 20.6884 2.25343 21.3726 1.77093 21.9183C1.73664 21.9572 1.71012 22.0027 1.69288 22.0521C1.67562 22.1016 1.66799 22.154 1.67041 22.2065C1.67282 22.259 1.68523 22.3104 1.70694 22.358C1.72865 22.4055 1.75921 22.4482 1.7969 22.4836C1.83461 22.5189 1.87868 22.5462 1.92662 22.564C1.97456 22.5818 2.02543 22.5897 2.07633 22.5872C2.12722 22.5847 2.17714 22.5719 2.22323 22.5495C2.26933 22.5271 2.3107 22.4956 2.34499 22.4567C2.93412 21.7904 3.31265 20.955 3.43027 20.0615C3.43082 20.0583 3.43134 20.0551 3.43181 20.0519C3.60869 18.4487 3.46983 17.6431 3.46983 15.9959C3.46944 13.1586 4.37711 10.4004 6.05202 8.14938C7.72694 5.89835 10.0754 4.2803 12.7332 3.5463C12.8252 3.52252 12.9056 3.46478 12.9591 3.38399C13.0126 3.30321 13.0356 3.20504 13.0237 3.10797C13.0118 3.0109 12.9657 2.92172 12.8943 2.85729C12.8229 2.79286 12.731 2.75763 12.6362 2.75831ZM5.26339 4.56153C5.16269 4.56428 5.06699 4.60729 4.99653 4.6815C3.23052 6.50322 1.91706 8.73764 1.16777 11.1949C0.41846 13.6522 0.255463 16.2597 0.692619 18.7959C0.700329 18.8488 0.718237 18.8995 0.745286 18.9451C0.772334 18.9907 0.807974 19.0303 0.850098 19.0615C0.892223 19.0926 0.939977 19.1147 0.990544 19.1265C1.0411 19.1383 1.09345 19.1396 1.14447 19.1301C1.19551 19.1207 1.2442 19.1009 1.28765 19.0717C1.33111 19.0426 1.36846 19.0048 1.39751 18.9605C1.42654 18.9162 1.44668 18.8663 1.45672 18.8139C1.46676 18.7614 1.4665 18.7075 1.45597 18.6551C1.04056 16.2459 1.19539 13.7687 1.9073 11.4344C2.6192 9.10004 3.86712 6.9775 5.54498 5.24713C5.60065 5.1909 5.63859 5.11865 5.65388 5.03985C5.66918 4.96106 5.6611 4.87937 5.63071 4.80538C5.60032 4.73139 5.54902 4.66855 5.4835 4.62506C5.41798 4.58156 5.34127 4.55943 5.26339 4.56153ZM15.8851 4.61749C13.9628 4.63292 12.0777 5.16588 10.4165 6.16354C8.75524 7.16119 7.3755 8.58896 6.41383 10.3055C6.38576 10.3511 6.36692 10.402 6.35843 10.4552C6.34994 10.5084 6.35198 10.5628 6.36443 10.6152C6.37687 10.6676 6.39946 10.7169 6.43085 10.7601C6.46223 10.8032 6.50177 10.8394 6.54705 10.8664C6.59235 10.8934 6.64246 10.9107 6.6944 10.9172C6.74633 10.9237 6.799 10.9193 6.84924 10.9043C6.89948 10.8892 6.94626 10.8639 6.98674 10.8297C7.02724 10.7955 7.06061 10.7533 7.08486 10.7055C8.19207 8.72732 9.89061 7.17193 11.9263 6.27208C13.9621 5.37223 16.2256 5.1763 18.3784 5.71354C20.5311 6.24962 22.4577 7.49012 23.8698 9.24947C25.2818 11.0088 26.1036 13.1924 26.212 15.4735C26.2145 15.526 26.227 15.5775 26.2489 15.6251C26.2707 15.6726 26.3015 15.7152 26.3393 15.7505C26.3771 15.7858 26.4212 15.813 26.4693 15.8307C26.5173 15.8484 26.5682 15.8562 26.6192 15.8535C26.6701 15.8509 26.7201 15.8379 26.7661 15.8154C26.8122 15.7929 26.8536 15.7612 26.8878 15.7222C26.922 15.6832 26.9485 15.6376 26.9656 15.5881C26.9828 15.5386 26.9902 15.486 26.9877 15.4335C26.8467 12.5019 25.613 9.73989 23.5441 7.72413C21.4753 5.70837 18.7312 4.59479 15.8851 4.61593V4.61749ZM23.6714 4.95514C23.5909 4.95847 23.5133 4.98756 23.4496 5.03839C23.3859 5.08922 23.339 5.15926 23.3157 5.23878C23.2923 5.3183 23.2936 5.40332 23.3192 5.48209C23.3449 5.56086 23.3936 5.62947 23.4588 5.67833C25.5358 7.28182 27.0773 9.51214 27.8698 12.0599C27.8826 12.1131 27.9058 12.1629 27.9381 12.2065C27.9704 12.25 28.0109 12.2862 28.0574 12.3129C28.1038 12.3395 28.155 12.356 28.2079 12.3614C28.2607 12.3668 28.3142 12.361 28.3647 12.3442C28.4153 12.3275 28.462 12.3002 28.5019 12.2641C28.5419 12.2279 28.5741 12.1838 28.5968 12.1342C28.6195 12.0847 28.6321 12.0309 28.6339 11.9761C28.6355 11.9214 28.6263 11.8669 28.6067 11.8159C27.7659 9.11006 26.1294 6.74106 23.9243 5.03751C23.8519 4.98025 23.7624 4.95111 23.6714 4.95514ZM15.9681 6.92872C14.6646 6.92886 13.3775 7.22781 12.1999 7.80397C11.0222 8.38013 9.9836 9.21907 9.15901 10.2601C8.33443 11.3011 7.74458 12.5181 7.43214 13.8231C7.11971 15.1281 7.0925 16.4884 7.35249 17.8055C7.36268 17.857 7.3826 17.9059 7.41112 17.9494C7.43964 17.993 7.47619 18.0303 7.51869 18.0593C7.56119 18.0883 7.6088 18.1083 7.65882 18.1183C7.70884 18.1283 7.76028 18.128 7.81019 18.1175C7.86011 18.107 7.90754 18.0864 7.94976 18.057C7.99198 18.0276 8.02817 17.99 8.05626 17.9462C8.08435 17.9023 8.1038 17.8532 8.11349 17.8016C8.12318 17.75 8.12293 17.697 8.11274 17.6455C7.87546 16.4446 7.9001 15.2042 8.18488 14.0143C8.46966 12.8244 9.00746 11.7147 9.75931 10.7655C10.5112 9.81636 11.4583 9.05146 12.5322 8.52623C13.606 8.00101 14.7796 7.7286 15.9681 7.72872C16.071 7.72872 16.1696 7.68655 16.2423 7.61153C16.315 7.53652 16.356 7.43481 16.356 7.32872C16.356 7.22264 16.315 7.12087 16.2423 7.04586C16.1696 6.97085 16.071 6.92872 15.9681 6.92872ZM18.5165 7.33351C18.5035 7.33284 18.4906 7.33284 18.4777 7.33351C18.3871 7.34031 18.3018 7.37967 18.2364 7.44469C18.1711 7.50971 18.1299 7.59629 18.1201 7.68937C18.1104 7.78244 18.1325 7.87612 18.1829 7.95406C18.2332 8.03201 18.3084 8.08928 18.3954 8.11593C20.0173 8.64705 21.4332 9.69686 22.4378 11.1133C23.4425 12.5298 23.9837 14.2394 23.9832 15.9943C23.9837 15.997 23.9842 15.9996 23.9848 16.0023C24.0282 18.1415 24.0205 20.368 23.8118 22.296C23.8003 22.4014 23.83 22.5072 23.8942 22.5901C23.9585 22.673 24.052 22.7262 24.1543 22.738C24.2565 22.7497 24.3591 22.7191 24.4395 22.6529C24.5198 22.5867 24.5714 22.4902 24.5829 22.3847C24.7985 20.3943 24.8024 18.1431 24.759 15.9927C24.759 12.0455 22.2781 8.54953 18.6305 7.35353C18.5937 7.34048 18.5552 7.33316 18.5165 7.3319V7.33351ZM15.5918 9.2503C14.7298 9.30176 13.8861 9.5285 13.1094 9.91749C13.0621 9.93941 13.0195 9.9709 12.9842 10.0101C12.9489 10.0492 12.9217 10.0953 12.9039 10.1455C12.8862 10.1958 12.8784 10.2492 12.8811 10.3026C12.8837 10.356 12.8966 10.4083 12.9192 10.4564C12.9418 10.5045 12.9735 10.5475 13.0124 10.5828C13.0513 10.6181 13.0967 10.645 13.1459 10.6619C13.1951 10.6788 13.2471 10.6853 13.2988 10.6811C13.3505 10.6769 13.4008 10.6621 13.4469 10.6375C14.3596 10.1808 15.3729 9.98012 16.3848 10.0557C17.3966 10.1312 18.3713 10.4804 19.2108 11.0679C19.2529 11.0973 19.3004 11.1179 19.3503 11.1284C19.4002 11.1389 19.4517 11.1392 19.5018 11.1292C19.5518 11.1192 19.5994 11.0992 19.6419 11.0702C19.6844 11.0412 19.721 11.0039 19.7495 10.9603C19.778 10.9168 19.7979 10.8679 19.8082 10.8164C19.8184 10.7649 19.8186 10.7118 19.8089 10.6602C19.7992 10.6086 19.7798 10.5595 19.7517 10.5157C19.7235 10.4718 19.6874 10.4341 19.6452 10.4047C18.4542 9.57077 17.029 9.16503 15.5918 9.2503ZM11.6029 11.0975C11.502 11.1007 11.4062 11.1443 11.336 11.2191C10.1076 12.4858 9.41729 14.2037 9.41679 15.9951V18.6471C9.41679 22.0351 8.05767 25.1703 5.7909 27.4631C5.75126 27.499 5.71914 27.5428 5.69649 27.592C5.67384 27.6411 5.66115 27.6944 5.65917 27.7488C5.6572 27.8031 5.66599 27.8572 5.68501 27.908C5.70403 27.9587 5.73289 28.0049 5.7698 28.0437C5.80672 28.0825 5.85093 28.1132 5.89972 28.1338C5.94853 28.1545 6.00089 28.1646 6.05361 28.1636C6.10634 28.1627 6.15832 28.1507 6.20639 28.1283C6.25445 28.1059 6.29759 28.0737 6.33315 28.0336C8.74188 25.5968 10.1926 22.2559 10.1926 18.6471V15.9959C10.1926 14.4159 10.8015 12.9015 11.8845 11.7847C11.9409 11.7286 11.9797 11.6562 11.9954 11.577C12.0112 11.4977 12.0034 11.4154 11.9728 11.3409C11.9424 11.2664 11.8907 11.2032 11.8247 11.1596C11.7585 11.116 11.6812 11.0949 11.6029 11.0975ZM15.9681 11.5551C15.9186 11.5549 15.8697 11.5644 15.8238 11.5831C14.7455 11.6223 13.7122 12.0575 12.9465 12.8503C12.1449 13.6808 11.6949 14.8049 11.6952 15.9767L11.6836 17.7207C11.683 17.7732 11.6926 17.8254 11.7116 17.8741C11.7306 17.9228 11.7587 17.9672 11.7944 18.0047C11.8301 18.0423 11.8726 18.0721 11.9194 18.0927C11.9662 18.1133 12.0166 18.1242 12.0676 18.1247C12.1185 18.1252 12.169 18.1154 12.2163 18.0958C12.2636 18.0762 12.3066 18.0471 12.343 18.0104C12.3793 17.9736 12.4083 17.9298 12.4283 17.8815C12.4483 17.8332 12.4588 17.7812 12.4593 17.7287L12.471 15.9831C12.4709 15.0228 12.8396 14.1014 13.4965 13.4207C13.8204 13.0848 14.2056 12.8181 14.6297 12.6361C15.0539 12.4541 15.5086 12.3602 15.9681 12.3599H15.9696C16.4337 12.3592 16.8935 12.4529 17.3225 12.6358C17.7515 12.8187 18.1412 13.0871 18.4692 13.4256C18.7974 13.7642 19.0575 14.1662 19.2347 14.6087C19.4119 15.0511 19.5025 15.5252 19.5017 16.0039V17.1599C19.5017 19.2679 19.2899 21.3687 18.8694 23.4319C18.8481 23.5358 18.8677 23.6441 18.9238 23.7331C18.98 23.822 19.0681 23.8843 19.1689 23.9063C19.2695 23.9283 19.3746 23.9081 19.4608 23.8502C19.5471 23.7922 19.6076 23.7014 19.6289 23.5975C20.0602 21.4807 20.2774 19.3231 20.2774 17.1599V16.0039C20.2774 13.6063 18.4172 11.6727 16.1116 11.5895C16.0665 11.5705 16.0183 11.5605 15.9696 11.5599H15.9681V11.5519V11.5551ZM21.0982 12.0751C21.0274 12.075 20.958 12.0949 20.8973 12.1326C20.8367 12.1703 20.7873 12.2244 20.7544 12.289C20.7215 12.3536 20.7063 12.4263 20.7106 12.4991C20.7148 12.572 20.7383 12.6422 20.7786 12.7023C21.5041 13.8289 21.836 15.1768 21.7196 16.5239C21.7149 16.5763 21.7204 16.629 21.7356 16.6791C21.7508 16.7293 21.7754 16.7758 21.808 16.8162C21.8407 16.8565 21.8806 16.8898 21.9258 16.9142C21.9709 16.9386 22.0203 16.9536 22.071 16.9583C22.1734 16.9679 22.2754 16.9351 22.3543 16.8671C22.3935 16.8334 22.4258 16.7921 22.4494 16.7456C22.4731 16.6991 22.4876 16.6482 22.4922 16.5959C22.6246 15.0676 22.2483 13.5384 21.4255 12.2599C21.3903 12.2034 21.3419 12.1568 21.2846 12.1247C21.2274 12.0925 21.1633 12.075 21.0982 12.0751ZM5.66678 12.7487C5.58382 12.7529 5.50438 12.7845 5.44014 12.8388C5.3759 12.8931 5.33026 12.9673 5.30992 13.0503C5.0121 14.1992 4.89065 15.3891 4.94998 16.5767C4.98877 17.8407 4.9205 18.2944 4.93447 20.0584C4.93444 20.061 4.93444 20.0636 4.93447 20.0663C4.9717 21.5719 4.19284 22.9776 2.8981 23.7336C2.80849 23.7859 2.74271 23.8726 2.71522 23.975C2.68772 24.0773 2.70076 24.1868 2.75148 24.2792C2.8022 24.3716 2.88643 24.4394 2.98565 24.4677C3.08487 24.4961 3.19094 24.4826 3.28055 24.4303C4.8181 23.5319 5.75444 21.8487 5.71022 20.0463C5.69704 18.3079 5.76452 17.8471 5.72419 16.5447C5.72421 16.5421 5.72421 16.5394 5.72419 16.5367C5.66987 15.4327 5.78314 14.3279 6.06086 13.2599C6.0782 13.1985 6.08101 13.1337 6.06904 13.0709C6.05706 13.0081 6.03068 12.9493 5.99208 12.8992C5.95347 12.8491 5.90378 12.8093 5.84718 12.7831C5.79058 12.7569 5.72872 12.7451 5.66678 12.7487ZM15.9681 13.8607C15.4197 13.8626 14.8943 14.0883 14.5068 14.4883C14.1194 14.8884 13.9011 15.4304 13.8999 15.9959L13.8766 18.1847C13.7838 20.3437 13.4 22.4788 12.7363 24.5287C12.7167 24.5793 12.7073 24.6335 12.7087 24.688C12.7102 24.7424 12.7224 24.796 12.7446 24.8454C12.7668 24.8948 12.7986 24.9391 12.8381 24.9754C12.8775 25.0116 12.9236 25.0393 12.9738 25.0565C13.0238 25.0737 13.0768 25.0802 13.1295 25.0755C13.182 25.0709 13.2332 25.0553 13.2798 25.0296C13.3263 25.0038 13.3673 24.9685 13.4001 24.9258C13.433 24.8832 13.4571 24.8341 13.4709 24.7815C14.1578 22.6617 14.5551 20.4536 14.6516 18.2207C14.6522 18.2157 14.6527 18.2106 14.6532 18.2055L14.6757 15.9975C14.6757 15.2567 15.2497 14.6631 15.9681 14.6631C16.1381 14.6625 16.3065 14.6966 16.4637 14.7634C16.6209 14.8303 16.7637 14.9286 16.8839 15.0526C17.004 15.1767 17.0991 15.3241 17.1638 15.4862C17.2284 15.6484 17.2613 15.8222 17.2605 15.9975C17.2605 16.1036 17.3013 16.2053 17.374 16.2803C17.4468 16.3553 17.5455 16.3975 17.6484 16.3975C17.7513 16.3975 17.8499 16.3553 17.9226 16.2803C17.9953 16.2053 18.0363 16.1036 18.0363 15.9975C18.0363 14.8239 17.1053 13.8631 15.9681 13.8631V13.8607ZM28.727 13.8687V13.8767C28.6729 13.8793 28.6199 13.8934 28.5715 13.9184C28.523 13.9433 28.4802 13.9784 28.4458 14.0214C28.4112 14.0645 28.3858 14.1145 28.3712 14.1682C28.3566 14.222 28.3531 14.2783 28.3608 14.3335C28.4229 14.8231 28.4578 15.3151 28.4648 15.8087V18.3127C28.4648 20.7463 28.1436 23.1687 27.509 25.5119C27.4953 25.5625 27.4913 25.6154 27.4974 25.6675C27.5034 25.7197 27.5194 25.7701 27.5443 25.8159C27.5693 25.8617 27.6028 25.902 27.6429 25.9344C27.6829 25.9669 27.7288 25.991 27.7778 26.0051C27.8269 26.0193 27.8781 26.0234 27.9287 26.0171C27.9793 26.0109 28.0282 25.9944 28.0726 25.9686C28.117 25.9429 28.1561 25.9085 28.1875 25.8671C28.219 25.8258 28.2423 25.7785 28.2561 25.7279C28.91 23.3141 29.2414 20.8197 29.2413 18.3135V15.8023C29.2413 15.7991 29.2413 15.7959 29.2413 15.7927C29.2335 15.2687 29.1963 14.7447 29.1304 14.2255C29.1188 14.125 29.0708 14.0327 28.996 13.9672C28.9211 13.9017 28.825 13.868 28.727 13.8727V13.8687ZM26.5952 17.3479C26.4924 17.3513 26.3951 17.3965 26.3247 17.4738C26.2543 17.551 26.2165 17.654 26.2197 17.7599C26.281 21.3799 25.7349 24.9839 24.6046 28.4111C24.5713 28.5116 24.5782 28.6215 24.6236 28.7168C24.669 28.812 24.7492 28.8848 24.8466 28.9191C24.944 28.9534 25.0507 28.9464 25.1431 28.8996C25.2354 28.8528 25.306 28.77 25.3392 28.6695C26.4982 25.1542 27.0586 21.4586 26.9955 17.7463C26.9953 17.6928 26.9847 17.6399 26.9644 17.5907C26.944 17.5415 26.9142 17.497 26.877 17.4599C26.8397 17.4227 26.7954 17.3937 26.747 17.3745C26.6987 17.3552 26.647 17.3462 26.5952 17.3479ZM17.5181 17.8975C17.4221 17.9013 17.331 17.9415 17.2622 18.0105C17.1935 18.0795 17.1519 18.1724 17.1457 18.2711C16.797 22.8443 15.3839 27.2634 13.0264 31.1535C12.9721 31.2437 12.9548 31.3524 12.9781 31.4558C13.0016 31.5592 13.0638 31.6487 13.1513 31.7047C13.2387 31.7608 13.3442 31.7786 13.4444 31.7545C13.5446 31.7303 13.6315 31.6661 13.6858 31.5759C16.1088 27.5771 17.5607 23.0344 17.9183 18.3335C17.9233 18.2769 17.9166 18.2199 17.8986 18.1663C17.8805 18.1126 17.8515 18.0635 17.8137 18.0222C17.7758 17.981 17.7298 17.9485 17.6789 17.927C17.6279 17.9055 17.573 17.8955 17.5181 17.8975ZM22.1268 18.4975C22.0758 18.4973 22.0254 18.5074 21.9783 18.5274C21.9311 18.5473 21.8883 18.5765 21.8521 18.6135C21.8159 18.6505 21.7871 18.6945 21.7675 18.743C21.7478 18.7914 21.7376 18.8434 21.7374 18.8959C21.66 23.0835 20.7555 27.2108 19.0789 31.0255C19.055 31.0737 19.041 31.1264 19.0374 31.1803C19.0339 31.2343 19.041 31.2885 19.0583 31.3395C19.0757 31.3906 19.1029 31.4374 19.1383 31.4773C19.1737 31.5172 19.2167 31.5493 19.2644 31.5716C19.3122 31.594 19.3639 31.6061 19.4163 31.6072C19.4688 31.6083 19.5209 31.5984 19.5695 31.5782C19.6181 31.5579 19.6623 31.5278 19.6993 31.4894C19.7363 31.4511 19.7654 31.4054 19.7848 31.3551C21.5052 27.4416 22.4335 23.2073 22.5132 18.9111C22.5149 18.8576 22.5062 18.8042 22.4876 18.7542C22.469 18.7042 22.4408 18.6586 22.4048 18.62C22.3688 18.5815 22.3256 18.5507 22.2779 18.5297C22.2301 18.5087 22.1787 18.4977 22.1268 18.4975ZM7.52704 19.6447C7.43108 19.6493 7.34019 19.6905 7.27197 19.7602C7.20375 19.83 7.16306 19.9234 7.15778 20.0223C7.08434 21.1477 6.78837 22.2456 6.28808 23.2486C5.78778 24.2516 5.09375 25.1383 4.24869 25.8544C4.20523 25.8861 4.1686 25.9267 4.14106 25.9738C4.11353 26.0208 4.09569 26.0732 4.08865 26.1277C4.08161 26.1822 4.08554 26.2376 4.10017 26.2904C4.11479 26.3432 4.13983 26.3924 4.17369 26.4348C4.20756 26.4772 4.24954 26.512 4.29701 26.537C4.34448 26.5619 4.39643 26.5765 4.44961 26.5798C4.5028 26.5832 4.55607 26.5751 4.60613 26.5563C4.65617 26.5375 4.70192 26.5082 4.74053 26.4703C5.66721 25.6855 6.42839 24.7136 6.97724 23.6142C7.5261 22.5148 7.851 21.3112 7.93199 20.0775C7.93658 20.0208 7.92937 19.9637 7.91084 19.91C7.89232 19.8564 7.86291 19.8075 7.82458 19.7666C7.78625 19.7256 7.73988 19.6935 7.68857 19.6725C7.63725 19.6515 7.58218 19.642 7.52704 19.6447ZM11.7829 19.6527C11.7823 19.6527 11.7818 19.6527 11.7813 19.6527C11.6924 19.6584 11.608 19.6954 11.5425 19.7576C11.4769 19.8198 11.4342 19.9034 11.4214 19.9943C10.9207 23.2726 9.6412 26.3722 7.69693 29.0168C7.66411 29.0584 7.63977 29.1065 7.62534 29.1581C7.61092 29.2097 7.6067 29.2637 7.61296 29.317C7.61922 29.3703 7.63582 29.4217 7.66177 29.4682C7.68772 29.5148 7.72248 29.5555 7.76399 29.5879C7.80552 29.6202 7.85292 29.6437 7.90342 29.6568C7.9539 29.6699 8.00643 29.6724 8.05787 29.6641C8.1093 29.6558 8.15859 29.6369 8.20281 29.6086C8.24702 29.5802 8.28524 29.543 8.31522 29.4991C10.3368 26.7498 11.6671 23.5274 12.1878 20.1191C12.1978 20.0597 12.1947 19.9987 12.1787 19.9407C12.1626 19.8827 12.134 19.8292 12.0951 19.7841C12.0561 19.7391 12.0078 19.7038 11.9537 19.6807C11.8997 19.6577 11.8413 19.6476 11.7829 19.6511V19.6527ZM23.8389 24.2647C23.7497 24.2665 23.6638 24.2999 23.5956 24.3593C23.5276 24.4188 23.4814 24.5006 23.465 24.5911C23.0999 26.4748 22.5453 28.3141 21.8103 30.0792C21.7874 30.1278 21.7744 30.1807 21.772 30.2347C21.7696 30.2887 21.7777 30.3426 21.7961 30.3932C21.8144 30.4439 21.8425 30.4901 21.8787 30.5293C21.9148 30.5684 21.9583 30.5995 22.0065 30.6209C22.0547 30.6422 22.1065 30.6532 22.1589 30.6533C22.2113 30.6534 22.2632 30.6425 22.3115 30.6213C22.3596 30.6002 22.4032 30.5692 22.4395 30.5301C22.4757 30.4911 22.5039 30.4449 22.5225 30.3943C23.2788 28.5783 23.8495 26.686 24.2253 24.7479C24.2374 24.689 24.2365 24.6281 24.2226 24.5696C24.2088 24.5111 24.1823 24.4567 24.1452 24.4102C24.108 24.3638 24.0612 24.3265 24.0081 24.3013C23.9551 24.2761 23.8973 24.2636 23.8389 24.2647ZM18.6786 25.4135C18.5959 25.416 18.5162 25.4457 18.4509 25.4982C18.3857 25.5507 18.3386 25.6234 18.3163 25.7055C17.7567 27.682 17.0045 29.5949 16.0713 31.4151C16.0474 31.4616 16.0327 31.5124 16.0279 31.5648C16.0232 31.6172 16.0284 31.67 16.0434 31.7203C16.0585 31.7705 16.0829 31.8173 16.1155 31.8578C16.148 31.8983 16.1879 31.9317 16.233 31.9563C16.2781 31.9809 16.3274 31.9961 16.3782 32.001C16.429 32.006 16.4802 32.0005 16.5289 31.985C16.5776 31.9695 16.6229 31.9442 16.6622 31.9107C16.7015 31.8772 16.734 31.836 16.7578 31.7895C17.715 29.9216 18.4865 27.9585 19.0603 25.9303C19.0782 25.8696 19.082 25.8054 19.0711 25.7429C19.0603 25.6805 19.0351 25.6215 18.9979 25.571C18.9606 25.5205 18.9122 25.4799 18.8566 25.4525C18.8012 25.4251 18.7401 25.4118 18.6786 25.4135ZM12.1847 26.5799C12.1152 26.5864 12.0487 26.6121 11.9921 26.6544C11.9356 26.6966 11.8912 26.7538 11.8636 26.8199C11.3352 28.0146 10.7097 29.1611 9.99398 30.2471C9.96363 30.2905 9.942 30.3396 9.93036 30.3917C9.91873 30.4438 9.91737 30.4978 9.92629 30.5504C9.93521 30.6031 9.95432 30.6533 9.98244 30.6982C10.0105 30.7431 10.047 30.7818 10.0899 30.8119C10.1327 30.842 10.1809 30.8629 10.2317 30.8735C10.2826 30.884 10.3349 30.8841 10.3857 30.8734C10.4365 30.8627 10.4847 30.8416 10.5275 30.8114C10.5703 30.7812 10.6067 30.7425 10.6348 30.6975C11.3755 29.5735 12.0227 28.3869 12.5695 27.1504C12.5971 27.0898 12.6095 27.0231 12.6058 26.9563C12.602 26.8895 12.582 26.8249 12.5476 26.7681C12.5132 26.7114 12.4656 26.6644 12.4092 26.6315C12.3527 26.5986 12.2892 26.5809 12.2243 26.5799C12.2111 26.5792 12.1979 26.5792 12.1847 26.5799Z" fill="#0C3559"/>
</g>
</svg>
